<svg width="512" height="512" viewBox="0 0 512 512" xmlns="http://www.w3.org/2000/svg" role="img" aria-label="Premium loyalist cartoon persona">
  <defs>
    <linearGradient id="bgPremium" x1="0" y1="0" x2="1" y2="1">
      <stop offset="0%" stop-color="#c7b4e7"/>
      <stop offset="100%" stop-color="#6f78b7"/>
    </linearGradient>
  </defs>
  <rect width="512" height="512" rx="28" fill="url(#bgPremium)"/>
  <circle cx="100" cy="100" r="42" fill="#e6d9ff" opacity="0.5"/>
  <circle cx="412" cy="90" r="34" fill="#c9b3ff" opacity="0.5"/>

  <g transform="translate(0 8)">
    <ellipse cx="256" cy="414" rx="144" ry="106" fill="#2f355d" stroke="#222634" stroke-width="6"/>
    <path d="M186 374h140l-14 38H200z" fill="#ffffff" opacity="0.95"/>
    <rect x="194" y="334" width="124" height="44" rx="15" fill="#20263f"/>

    <circle cx="256" cy="228" r="97" fill="#f6d6bf" stroke="#222634" stroke-width="6"/>
    <path d="M166 216c8-58 48-96 100-96 46 0 78 32 84 80-20-8-38-10-56-9-42 2-77 19-128 25z" fill="#332c2f"/>

    <ellipse cx="219" cy="230" rx="9" ry="11" fill="#222634"/>
    <ellipse cx="291" cy="230" rx="9" ry="11" fill="#222634"/>
    <path d="M228 273c18 12 39 12 56 0" fill="none" stroke="#222634" stroke-width="6" stroke-linecap="round"/>
    <path d="M244 251h24" stroke="#222634" stroke-width="4" stroke-linecap="round"/>
  </g>

  <g transform="translate(354 286)">
    <circle cx="44" cy="44" r="38" fill="#fff7de" stroke="#222634" stroke-width="5"/>
    <path d="M44 18l8 14 16 3-11 12 2 17-15-8-15 8 2-17-11-12 16-3z" fill="#ffcf59" stroke="#222634" stroke-width="4" stroke-linejoin="round"/>
  </g>

  <g transform="translate(68 304)">
    <rect x="0" y="0" width="88" height="72" rx="12" fill="#f8f6ff" stroke="#222634" stroke-width="5"/>
    <path d="M22 40h44" stroke="#222634" stroke-width="5" stroke-linecap="round"/>
    <path d="M22 24h20" stroke="#222634" stroke-width="5" stroke-linecap="round"/>
    <circle cx="63" cy="24" r="10" fill="#ffcf59" stroke="#222634" stroke-width="4"/>
  </g>
</svg>
