<svg width="512" height="512" viewBox="0 0 512 512" xmlns="http://www.w3.org/2000/svg" role="img" aria-label="Steady pragmatist cartoon persona">
  <defs>
    <linearGradient id="bgSteady" x1="0" y1="0" x2="1" y2="1">
      <stop offset="0%" stop-color="#d5edf0"/>
      <stop offset="100%" stop-color="#99c5d0"/>
    </linearGradient>
  </defs>
  <rect width="512" height="512" rx="28" fill="url(#bgSteady)"/>
  <circle cx="110" cy="94" r="44" fill="#b8d9df" opacity="0.65"/>
  <circle cx="414" cy="108" r="38" fill="#b8d9df" opacity="0.55"/>

  <g transform="translate(0 10)">
    <ellipse cx="256" cy="414" rx="142" ry="104" fill="#5d8aa8" stroke="#2a2d34" stroke-width="6"/>
    <rect x="206" y="332" width="100" height="46" rx="16" fill="#476f89"/>

    <circle cx="256" cy="230" r="98" fill="#f5d9c3" stroke="#2a2d34" stroke-width="6"/>
    <path d="M165 216c14-62 47-95 96-95 50 0 85 34 91 88-26-15-62-16-95-10-35 7-60 13-92 17z" fill="#403833"/>

    <rect x="189" y="214" width="46" height="31" rx="12" fill="none" stroke="#2a2d34" stroke-width="5"/>
    <rect x="277" y="214" width="46" height="31" rx="12" fill="none" stroke="#2a2d34" stroke-width="5"/>
    <path d="M235 229h42" stroke="#2a2d34" stroke-width="5"/>

    <ellipse cx="212" cy="230" rx="7" ry="9" fill="#2a2d34"/>
    <ellipse cx="300" cy="230" rx="7" ry="9" fill="#2a2d34"/>
    <path d="M226 276c19 14 40 15 60 0" fill="none" stroke="#2a2d34" stroke-width="6" stroke-linecap="round"/>
  </g>

  <g transform="translate(62 296)">
    <rect x="0" y="0" width="84" height="102" rx="12" fill="#f6fcfd" stroke="#2a2d34" stroke-width="5"/>
    <rect x="18" y="18" width="48" height="10" rx="5" fill="#8ab9c4"/>
    <path d="M18 44h48M18 60h48" stroke="#2a2d34" stroke-width="5" stroke-linecap="round"/>
    <path d="M20 79l10 10 20-22" fill="none" stroke="#4e8a5f" stroke-width="6" stroke-linecap="round" stroke-linejoin="round"/>
  </g>

  <g transform="translate(364 314)">
    <circle cx="36" cy="36" r="30" fill="#f6fcfd" stroke="#2a2d34" stroke-width="5"/>
    <path d="M24 36h24M36 24v24" stroke="#2a2d34" stroke-width="5" stroke-linecap="round"/>
  </g>
</svg>
